<svg width="40" height="40" viewBox="0 0 40 40" fill="none" xmlns="http://www.w3.org/2000/svg">
<path d="M36.6667 9.16669H15C13.1667 9.16669 11.6667 10.6667 11.6667 12.5V27.5C11.6667 28.3841 12.0179 29.2319 12.643 29.857C13.2681 30.4822 14.1159 30.8334 15 30.8334H36.6667C38.5167 30.8334 40 29.35 40 27.5V12.5C40 11.616 39.6488 10.7681 39.0237 10.143C38.3986 9.51788 37.5507 9.16669 36.6667 9.16669ZM36.6667 15.2834L25.8333 20.8334L15 15.2834V12.5L25.8333 18.0167L36.6667 12.5V15.2834ZM8.33333 27.5C8.33333 27.7834 8.38333 28.05 8.41667 28.3334H1.66667C0.746667 28.3334 0 27.5834 0 26.6667C0 25.75 0.746667 25 1.66667 25H8.33333V27.5ZM5 11.6667H8.41667C8.38333 11.95 8.33333 12.2167 8.33333 12.5V15H5C4.08333 15 3.33333 14.25 3.33333 13.3334C3.33333 12.4167 4.08333 11.6667 5 11.6667ZM1.66667 20C1.66667 19.0834 2.41667 18.3334 3.33333 18.3334H8.33333V21.6667H3.33333C2.41667 21.6667 1.66667 20.9167 1.66667 20Z" fill="#4CB050"/>
</svg>
