<svg width="40" height="40" viewBox="0 0 40 40" fill="none" xmlns="http://www.w3.org/2000/svg">
<g clip-path="url(#clip0_38_872)">
<path d="M20 40C20 40 6 21.74 6 14C6 12.1615 6.36212 10.341 7.06569 8.64243C7.76925 6.94387 8.80048 5.40053 10.1005 4.1005C11.4005 2.80048 12.9439 1.76925 14.6424 1.06569C16.341 0.362121 18.1615 0 20 0C21.8385 0 23.659 0.362121 25.3576 1.06569C27.0561 1.76925 28.5995 2.80048 29.8995 4.1005C31.1995 5.40053 32.2308 6.94387 32.9343 8.64243C33.6379 10.341 34 12.1615 34 14C34 21.74 20 40 20 40ZM20 18C21.0609 18 22.0783 17.5786 22.8284 16.8284C23.5786 16.0783 24 15.0609 24 14C24 12.9391 23.5786 11.9217 22.8284 11.1716C22.0783 10.4214 21.0609 10 20 10C18.9391 10 17.9217 10.4214 17.1716 11.1716C16.4214 11.9217 16 12.9391 16 14C16 15.0609 16.4214 16.0783 17.1716 16.8284C17.9217 17.5786 18.9391 18 20 18Z" fill="#4CB050"/>
</g>
<defs>
<clipPath id="clip0_38_872">
<rect width="40" height="40" fill="white"/>
</clipPath>
</defs>
</svg>
